<?xml version="1.0" standalone="no"?>
<!DOCTYPE svg PUBLIC "-//W3C//DTD SVG 20010904//EN"
 "http://www.w3.org/TR/2001/REC-SVG-20010904/DTD/svg10.dtd">
<svg version="1.0" xmlns="http://www.w3.org/2000/svg"
 width="592.000000pt" height="421.000000pt" viewBox="0 0 592.000000 421.000000"
 preserveAspectRatio="xMidYMid meet">
<metadata>
Created by potrace 1.16, written by Peter Selinger 2001-2019
</metadata>
<g transform="translate(0.000000,421.000000) scale(0.100000,-0.100000)"
fill="#000000" stroke="none">
<path d="M0 2105 l0 -2105 2960 0 2960 0 0 2105 0 2105 -2960 0 -2960 0 0
-2105z m4187 1448 c4 -9 1 -53 -5 -97 -7 -44 -10 -82 -7 -84 2 -3 12 4 22 15
44 50 101 93 117 87 22 -9 21 -14 -19 -59 -57 -64 -61 -75 -26 -75 37 0 81
-16 81 -30 0 -5 -15 -10 -32 -10 -59 0 -57 3 -92 -164 -17 -81 -81 -212 -115
-234 -13 -9 -45 -17 -70 -19 -25 -1 -77 -14 -116 -29 -38 -15 -81 -27 -95 -29
-14 -1 -38 -5 -54 -10 -27 -7 -28 -10 -22 -53 3 -25 13 -53 21 -62 8 -9 15
-21 15 -27 0 -6 9 -22 20 -35 30 -39 36 -99 15 -166 -17 -54 -50 -121 -64
-132 -3 -3 -17 -27 -30 -53 l-24 -48 21 -15 c12 -8 22 -20 22 -27 0 -13 -118
-127 -131 -127 -5 0 -9 -11 -9 -23 0 -13 -9 -32 -20 -42 -26 -23 -27 -104 -3
-145 15 -27 15 -32 -6 -97 -12 -37 -35 -84 -50 -103 -21 -27 -29 -49 -33 -92
-3 -35 -11 -65 -22 -77 -9 -10 -19 -31 -22 -47 -17 -106 -29 -137 -73 -205
-27 -41 -65 -90 -85 -108 -20 -19 -36 -39 -36 -44 0 -19 -143 -215 -196 -270
-58 -60 -77 -66 -122 -43 -29 15 -46 42 -57 91 -4 17 -13 38 -22 47 -8 9 -19
31 -23 50 -5 18 -17 56 -27 83 -19 49 -20 50 -60 50 -25 0 -48 7 -61 18 -26
24 -113 30 -160 10 -59 -25 -122 5 -122 58 0 20 15 43 53 81 49 51 99 79 160
92 15 4 36 20 49 39 36 55 75 80 132 84 30 2 61 -2 76 -10 27 -14 27 -14 13
-150 -8 -75 -8 -78 17 -102 34 -33 44 -31 58 7 14 41 31 188 25 220 -2 13 0
55 5 93 12 86 3 100 -39 57 -17 -18 -37 -32 -45 -32 -17 0 -67 22 -76 34 -3 5
-30 6 -60 2 -29 -4 -100 -9 -158 -13 -62 -3 -111 -11 -120 -18 -8 -7 -38 -23
-67 -35 -36 -15 -66 -39 -100 -79 -68 -81 -113 -119 -233 -196 -174 -112 -312
-220 -360 -282 -57 -74 -171 -193 -185 -193 -13 0 -144 133 -173 177 -12 17
-22 36 -22 43 0 17 64 40 115 40 29 0 64 9 94 24 42 22 48 29 49 58 1 18 6 57
12 87 5 29 7 57 4 62 -3 5 2 9 12 9 13 0 16 -7 11 -34 -3 -21 -1 -36 5 -38 6
-2 14 -22 17 -43 l7 -40 103 105 c57 58 121 127 142 153 88 110 284 269 435
353 31 17 93 68 139 113 46 44 90 81 98 81 8 0 22 9 31 19 10 11 30 25 46 31
16 7 32 20 35 31 3 10 22 24 41 31 18 6 34 16 34 22 0 16 42 56 60 56 9 0 21
14 28 34 7 19 19 37 28 40 10 4 13 13 8 31 -5 20 0 33 18 53 45 49 58 93 58
192 l0 91 -127 -6 c-71 -3 -136 -9 -146 -11 -10 -3 -23 -1 -30 4 -7 5 -34 14
-62 21 -92 23 -130 34 -170 54 -47 23 -172 98 -233 139 -27 19 -52 28 -69 26
-26 -3 -27 -5 -28 -64 -1 -69 -24 -109 -91 -160 -60 -46 -175 -34 -226 22 -69
78 -75 153 -20 254 44 83 75 102 174 108 55 3 78 0 135 -23 37 -16 77 -29 88
-31 31 -5 155 -40 204 -58 24 -9 55 -16 69 -16 14 0 59 -9 100 -21 79 -22 126
-18 191 16 24 12 35 20 92 70 13 11 35 27 50 35 15 8 42 24 60 34 37 21 142
29 172 14 23 -12 48 9 78 66 19 35 23 59 25 171 1 72 7 148 14 170 6 22 14 53
17 70 10 53 60 83 169 99 76 12 91 12 100 0 6 -8 15 -14 20 -14 5 -1 18 -8 30
-18 16 -13 19 -26 16 -58 -2 -24 1 -45 7 -48 18 -11 13 -55 -13 -105 -13 -25
-30 -66 -38 -91 -9 -25 -19 -54 -23 -65 -6 -16 -2 -14 17 6 33 38 87 50 189
42 52 -3 99 -2 117 5 23 8 36 7 57 -4 15 -8 42 -14 60 -14 18 0 38 -7 45 -15
7 -8 19 -15 26 -15 11 0 9 9 -6 37 -11 21 -23 53 -26 73 -4 19 -11 40 -16 47
-5 7 -7 17 -3 23 9 15 35 12 41 -5 4 -8 11 -15 16 -15 7 0 8 35 4 98 -7 99 0
130 27 119 15 -6 27 -50 27 -103 0 -61 15 -35 29 48 7 45 15 86 17 90 9 14 34
9 41 -9z"/>
</g>
</svg>
